<svg version="1.0" xmlns="http://www.w3.org/2000/svg" width="800.000000" height="548.000000" viewBox="0 0 800.000000 548.000000" preserveAspectRatio="xMidYMid meet"><rect x="0" y="0" width="100%" height="100%" fill="rgba(0, 0, 0, 0)" /><g transform="translate(0.000000,548.000000) scale(0.100000,-0.100000)" fill="#000000" stroke="none"><path d="M2538 4123 c7 -3 16 -2 19 1 4 3 -2 6 -13 5 -11 0 -14 -3 -6 -6z"/><path d="M2378 4093 c7 -3 16 -2 19 1 4 3 -2 6 -13 5 -11 0 -14 -3 -6 -6z"/><path d="M3904 3818 l-19 -23 23 19 c21 18 27 26 19 26 -2 0 -12 -10 -23 -22z"/><path d="M1144 3308 l-19 -23 23 19 c21 18 27 26 19 26 -2 0 -12 -10 -23 -22z"/><path d="M1004 3188 l-19 -23 23 19 c21 18 27 26 19 26 -2 0 -12 -10 -23 -22z"/><path d="M3079 2913 c-13 -16 -12 -17 4 -4 16 13 21 21 13 21 -2 0 -10 -8 -17 -17z"/><path d="M6899 2913 c-13 -16 -12 -17 4 -4 16 13 21 21 13 21 -2 0 -10 -8 -17 -17z"/><path d="M2679 2823 c-13 -16 -12 -17 4 -4 16 13 21 21 13 21 -2 0 -10 -8 -17 -17z"/><path d="M3067 2820 c3 -11 9 -22 13 -25 5 -3 6 4 3 15 -3 11 -9 22 -13 25 -5 3 -6 -4 -3 -15z"/><path d="M3112 2774 c9 -9 21 -15 27 -13 6 2 -2 10 -17 17 -25 11 -25 11 -10 -4z"/><path d="M4009 2703 c-13 -16 -12 -17 4 -4 9 7 17 15 17 17 0 8 -8 3 -21 -13z"/><path d="M4661 2654 c0 -11 3 -14 6 -6 3 7 2 16 -1 19 -3 4 -6 -2 -5 -13z"/><path d="M2439 2603 c-13 -16 -12 -17 4 -4 9 7 17 15 17 17 0 8 -8 3 -21 -13z"/><path d="M6366 2573 c-6 -14 -5 -15 5 -6 7 7 10 15 7 18 -3 3 -9 -2 -12 -12z"/><path d="M2329 2513 c-13 -16 -12 -17 4 -4 9 7 17 15 17 17 0 8 -8 3 -21 -13z"/><path d="M2274 2474 c-18 -14 -18 -15 4 -4 12 6 22 13 22 15 0 8 -5 6 -26 -11z"/><path d="M4049 2463 c-13 -16 -12 -17 4 -4 9 7 17 15 17 17 0 8 -8 3 -21 -13z"/><path d="M4414 2448 l-29 -33 33 29 c30 28 37 36 29 36 -2 0 -16 -15 -33 -32z"/><path d="M3511 2454 c0 -11 3 -14 6 -6 3 7 2 16 -1 19 -3 4 -6 -2 -5 -13z"/><path d="M3309 2383 l-24 -28 28 24 c25 23 32 31 24 31 -2 0 -14 -12 -28 -27z"/><path d="M4815 2400 c-3 -5 -1 -10 4 -10 6 0 11 5 11 10 0 6 -2 10 -4 10 -3 0 -8 -4 -11 -10z"/><path d="M5322 2370 c0 -14 2 -19 5 -12 2 6 2 18 0 25 -3 6 -5 1 -5 -13z"/><path d="M2309 2363 c-13 -16 -12 -17 4 -4 9 7 17 15 17 17 0 8 -8 3 -21 -13z"/><path d="M6071 2344 c0 -11 3 -14 6 -6 3 7 2 16 -1 19 -3 4 -6 -2 -5 -13z"/><path d="M6649 2343 c-13 -16 -12 -17 4 -4 9 7 17 15 17 17 0 8 -8 3 -21 -13z"/><path d="M4424 2328 l-19 -23 23 19 c12 11 22 21 22 23 0 8 -8 2 -26 -19z"/><path d="M5839 2333 c-13 -16 -12 -17 4 -4 16 13 21 21 13 21 -2 0 -10 -8 -17 -17z"/><path d="M5590 2310 c-9 -6 -10 -10 -3 -10 6 0 15 5 18 10 8 12 4 12 -15 0z"/><path d="M7288 2313 c7 -3 16 -2 19 1 4 3 -2 6 -13 5 -11 0 -14 -3 -6 -6z"/><path d="M7498 2313 c6 -2 18 -2 25 0 6 3 1 5 -13 5 -14 0 -19 -2 -12 -5z"/><path d="M6440 2306 c0 -2 8 -10 18 -17 15 -13 16 -12 3 4 -13 16 -21 21 -21 13z"/><path d="M7193 2303 c9 -2 23 -2 30 0 6 3 -1 5 -18 5 -16 0 -22 -2 -12 -5z"/><path d="M7038 2293 c12 -2 30 -2 40 0 9 3 -1 5 -23 4 -22 0 -30 -2 -17 -4z"/><path d="M7108 2293 c7 -3 16 -2 19 1 4 3 -2 6 -13 5 -11 0 -14 -3 -6 -6z"/><path d="M7668 2283 c7 -3 16 -2 19 1 4 3 -2 6 -13 5 -11 0 -14 -3 -6 -6z"/><path d="M2110 2240 c-9 -6 -10 -10 -3 -10 6 0 15 5 18 10 8 12 4 12 -15 0z"/><path d="M3169 2213 c-13 -16 -12 -17 4 -4 16 13 21 21 13 21 -2 0 -10 -8 -17 -17z"/><path d="M4659 2213 c-13 -16 -12 -17 4 -4 16 13 21 21 13 21 -2 0 -10 -8 -17 -17z"/><path d="M2822 2200 c0 -14 2 -19 5 -12 2 6 2 18 0 25 -3 6 -5 1 -5 -13z"/><path d="M6063 2213 c9 -2 25 -2 35 0 9 3 1 5 -18 5 -19 0 -27 -2 -17 -5z"/><path d="M3850 2155 c13 -14 26 -25 28 -25 3 0 -5 11 -18 25 -13 14 -26 25 -28 25 -3 0 5 -11 18 -25z"/><path d="M4563 2173 c9 -2 23 -2 30 0 6 3 -1 5 -18 5 -16 0 -22 -2 -12 -5z"/><path d="M3799 2153 c-13 -16 -12 -17 4 -4 16 13 21 21 13 21 -2 0 -10 -8 -17 -17z"/><path d="M5308 2163 c7 -3 16 -2 19 1 4 3 -2 6 -13 5 -11 0 -14 -3 -6 -6z"/><path d="M1211 2124 c0 -11 3 -14 6 -6 3 7 2 16 -1 19 -3 4 -6 -2 -5 -13z"/><path d="M4684 2118 l-19 -23 23 19 c12 11 22 21 22 23 0 8 -8 2 -26 -19z"/><path d="M7538 2133 c6 -2 18 -2 25 0 6 3 1 5 -13 5 -14 0 -19 -2 -12 -5z"/><path d="M3049 2103 c-13 -16 -12 -17 4 -4 9 7 17 15 17 17 0 8 -8 3 -21 -13z"/><path d="M1235 2080 c10 -11 20 -20 23 -20 3 0 -3 9 -13 20 -10 11 -20 20 -23 20 -3 0 3 -9 13 -20z"/><path d="M5170 2086 c0 -2 8 -10 18 -17 15 -13 16 -12 3 4 -13 16 -21 21 -21 13z"/><path d="M4731 2054 c0 -11 3 -14 6 -6 3 7 2 16 -1 19 -3 4 -6 -2 -5 -13z"/><path d="M5288 2013 c12 -2 32 -2 45 0 12 2 2 4 -23 4 -25 0 -35 -2 -22 -4z"/><path d="M7268 1993 c6 -2 18 -2 25 0 6 3 1 5 -13 5 -14 0 -19 -2 -12 -5z"/><path d="M370 1966 c0 -2 8 -10 18 -17 15 -13 16 -12 3 4 -13 16 -21 21 -21 13z"/><path d="M5933 1963 c15 -2 39 -2 55 0 15 2 2 4 -28 4 -30 0 -43 -2 -27 -4z"/><path d="M5773 1953 c15 -2 37 -2 50 0 12 2 0 4 -28 4 -27 0 -38 -2 -22 -4z"/><path d="M270 1947 c0 -2 15 -16 33 -33 l32 -29 -29 33 c-28 30 -36 37 -36 29z"/><path d="M6523 1913 c9 -2 23 -2 30 0 6 3 -1 5 -18 5 -16 0 -22 -2 -12 -5z"/><path d="M6353 1903 c15 -2 37 -2 50 0 12 2 0 4 -28 4 -27 0 -38 -2 -22 -4z"/><path d="M6193 1893 c9 -2 25 -2 35 0 9 3 1 5 -18 5 -19 0 -27 -2 -17 -5z"/><path d="M5948 1883 c6 -2 18 -2 25 0 6 3 1 5 -13 5 -14 0 -19 -2 -12 -5z"/><path d="M1990 1876 c0 -2 7 -7 16 -10 8 -3 12 -2 9 4 -6 10 -25 14 -25 6z"/><path d="M5793 1873 c9 -2 25 -2 35 0 9 3 1 5 -18 5 -19 0 -27 -2 -17 -5z"/><path d="M5228 1833 c7 -3 16 -2 19 1 4 3 -2 6 -13 5 -11 0 -14 -3 -6 -6z"/><path d="M5278 1833 c7 -3 16 -2 19 1 4 3 -2 6 -13 5 -11 0 -14 -3 -6 -6z"/><path d="M4978 1813 c12 -2 32 -2 45 0 12 2 2 4 -23 4 -25 0 -35 -2 -22 -4z"/><path d="M4058 1793 c7 -3 16 -2 19 1 4 3 -2 6 -13 5 -11 0 -14 -3 -6 -6z"/><path d="M2290 1756 c0 -2 7 -7 16 -10 8 -3 12 -2 9 4 -6 10 -25 14 -25 6z"/><path d="M4293 1743 c9 -2 23 -2 30 0 6 3 -1 5 -18 5 -16 0 -22 -2 -12 -5z"/><path d="M2908 1703 c7 -3 16 -2 19 1 4 3 -2 6 -13 5 -11 0 -14 -3 -6 -6z"/><path d="M3258 1703 c7 -3 16 -2 19 1 4 3 -2 6 -13 5 -11 0 -14 -3 -6 -6z"/><path d="M2548 1663 c7 -3 16 -2 19 1 4 3 -2 6 -13 5 -11 0 -14 -3 -6 -6z"/><path d="M2758 1613 c7 -3 16 -2 19 1 4 3 -2 6 -13 5 -11 0 -14 -3 -6 -6z"/><path d="M2798 1603 c6 -2 18 -2 25 0 6 3 1 5 -13 5 -14 0 -19 -2 -12 -5z"/><path d="M2953 1583 c9 -2 25 -2 35 0 9 3 1 5 -18 5 -19 0 -27 -2 -17 -5z"/><path d="M3028 1583 c7 -3 16 -2 19 1 4 3 -2 6 -13 5 -11 0 -14 -3 -6 -6z"/><path d="M3098 1583 c7 -3 16 -2 19 1 4 3 -2 6 -13 5 -11 0 -14 -3 -6 -6z"/><path d="M1426 1442 c-2 -4 4 -8 14 -8 10 0 16 4 14 8 -3 4 -9 8 -14 8 -5 0 -11 -4 -14 -8z"/><path d="M4311 1224 c0 -11 3 -14 6 -6 3 7 2 16 -1 19 -3 4 -6 -2 -5 -13z"/></g><g transform="translate(0.000000,548.000000) scale(0.100000,-0.100000)" fill="#060606" stroke="none"><path d="M2598 4113 c-51 -6 -122 -19 -158 -28 -36 -9 -76 -18 -90 -20 -36 -5 -135 -39 -225 -75 -11 -4 -38 -15 -60 -23 -52 -19 -278 -127 -285 -136 -3 -3 -23 -15 -45 -27 -106 -55 -168 -93 -305 -188 -36 -25 -83 -58 -105 -72 -22 -15 -46 -33 -54 -41 -7 -8 -46 -38 -86 -68 -120 -89 -227 -183 -409 -361 -72 -71 -257 -292 -316 -379 -92 -135 -186 -319 -217 -424 -24 -84 -15 -202 21 -268 43 -78 86 -113 191 -154 44 -16 133 -26 190 -19 52 6 55 7 20 9 -99 6 -125 11 -186 35 -79 33 -160 109 -174 166 -1 3 -5 13 -10 23 -4 10 -5 57 -2 105 4 66 13 106 37 166 39 97 142 286 170 311 11 10 20 22 20 26 0 9 75 109 150 199 51 61 300 310 384 383 83 73 255 205 316 245 30 19 59 40 65 47 29 35 421 251 595 328 40 18 191 71 265 93 421 128 748 89 861 -103 73 -125 46 -306 -83 -550 -47 -90 -177 -280 -244 -357 -114 -131 -225 -245 -286 -293 -19 -15 -56 -46 -81 -68 -24 -22 -52 -46 -61 -53 -69 -53 -315 -222 -325 -222 -3 0 -25 -13 -49 -30 -25 -16 -48 -30 -51 -30 -3 0 -34 -14 -68 -31 -130 -64 -288 -108 -288 -81 0 13 56 184 77 232 8 19 21 49 28 65 8 17 17 41 21 55 6 25 93 238 119 295 8 17 23 53 34 80 10 28 32 79 49 115 16 36 47 106 67 155 21 50 53 120 71 157 18 37 36 84 40 106 6 36 3 42 -20 57 -22 15 -29 15 -42 4 -26 -21 -78 -109 -104 -174 -13 -33 -38 -91 -56 -130 -17 -38 -47 -104 -67 -145 -19 -41 -37 -86 -41 -100 -8 -26 -21 -58 -61 -145 -12 -27 -33 -77 -45 -110 -13 -33 -33 -82 -46 -110 -34 -75 -47 -109 -45 -118 0 -4 -4 -18 -11 -30 -7 -12 -31 -65 -54 -117 -45 -104 -36 -99 -134 -87 -91 10 -160 -24 -160 -79 0 -33 31 -53 109 -71 41 -10 71 -22 71 -30 0 -6 -16 -54 -36 -105 -20 -51 -41 -103 -45 -115 -5 -13 -13 -33 -19 -45 -55 -129 -130 -411 -132 -495 -1 -26 2 -58 6 -71 9 -27 60 -55 86 -47 11 3 43 50 75 108 31 56 65 117 76 135 35 54 -1 38 -50 -23 -24 -30 -46 -53 -49 -51 -2 3 19 78 48 168 104 327 176 517 198 525 38 15 275 -54 457 -132 37 -16 230 -92 350 -137 50 -19 113 -40 140 -47 28 -7 61 -17 75 -22 14 -5 34 -11 45 -14 11 -2 38 -9 60 -15 22 -6 56 -13 75 -16 19 -2 62 -9 95 -14 118 -18 286 -7 377 26 21 7 70 34 109 60 71 48 90 66 42 40 -97 -51 -134 -59 -278 -60 -173 -1 -237 9 -525 84 -44 11 -54 15 -115 40 -16 6 -50 18 -75 26 -43 14 -57 20 -125 49 -16 7 -68 27 -115 45 -47 17 -103 40 -125 50 -22 9 -56 21 -75 25 -19 4 -41 11 -50 16 -15 8 -128 42 -182 55 -37 8 -35 21 5 29 17 4 37 11 42 15 6 4 23 10 40 14 33 8 79 28 205 90 269 132 655 440 872 696 85 100 119 143 130 163 6 12 18 29 28 39 33 36 130 218 164 309 51 136 59 179 54 277 -3 75 -9 99 -39 163 -56 117 -138 183 -294 235 -70 23 -235 31 -347 17z m-1150 -1997 c4 -17 -1 -18 -42 -14 -25 3 -53 12 -63 19 -14 13 -13 15 13 19 44 9 88 -3 92 -24z"/><path d="M5710 3920 c-16 -16 -30 -34 -30 -39 0 -5 -3 -17 -6 -26 -4 -9 -3 -15 2 -14 19 3 34 -2 34 -11 0 -15 -80 -237 -151 -420 -79 -203 -81 -207 -129 -335 -23 -60 -52 -135 -63 -165 -12 -30 -22 -57 -23 -60 0 -3 -5 -16 -11 -30 -6 -14 -18 -45 -26 -70 -9 -25 -27 -76 -41 -115 -15 -38 -40 -119 -56 -180 -17 -60 -35 -121 -41 -134 -16 -37 -12 -152 6 -198 20 -51 65 -84 122 -91 38 -4 57 2 138 42 51 26 99 53 105 61 7 8 19 15 26 15 8 0 14 4 14 9 0 5 21 23 48 40 101 65 180 125 276 214 17 15 34 27 38 27 5 0 8 -21 8 -47 0 -60 25 -111 69 -140 39 -27 76 -29 117 -8 39 19 184 162 184 181 0 7 4 14 10 14 5 0 25 22 42 50 18 27 36 50 39 50 4 0 4 -30 1 -66 -9 -112 28 -178 104 -182 17 -1 43 4 56 11 41 21 150 137 198 210 24 37 47 67 51 67 4 0 7 -17 7 -37 0 -94 30 -156 97 -198 44 -27 57 -30 139 -32 50 -1 114 2 141 7 148 26 387 13 493 -26 50 -19 65 -53 36 -85 -40 -44 -251 -124 -358 -135 -23 -2 -59 -8 -81 -14 -46 -11 -221 -39 -280 -44 -249 -25 -275 -29 -275 -46 0 -5 -8 -11 -17 -13 -71 -20 320 22 512 54 66 11 135 22 154 25 186 25 395 120 422 191 17 46 -29 95 -116 123 -22 7 -47 15 -55 18 -8 2 -28 6 -45 8 -16 2 -52 9 -80 14 -27 6 -138 10 -245 9 -246 -2 -250 -2 -280 11 -61 25 -72 96 -37 235 3 11 23 71 46 134 43 124 42 143 -5 155 -43 11 -68 -16 -127 -138 -31 -63 -79 -149 -107 -190 -87 -130 -220 -250 -246 -223 -23 23 7 134 110 410 28 76 23 102 -23 114 -36 9 -53 -6 -90 -83 -18 -38 -40 -81 -47 -96 -8 -14 -14 -31 -14 -38 0 -22 -48 -109 -82 -147 -105 -119 -229 -220 -277 -225 -60 -7 -42 108 55 367 38 102 42 132 17 151 -32 24 -61 17 -87 -23 -30 -46 -76 -155 -102 -241 -22 -75 -46 -97 -180 -168 -49 -26 -90 -51 -92 -56 -2 -4 -8 -8 -13 -8 -5 0 -52 -25 -104 -55 -53 -30 -100 -55 -105 -55 -4 0 -10 -4 -12 -9 -4 -12 -133 -71 -156 -71 -31 0 -45 25 -38 67 13 75 39 179 63 253 14 41 26 80 28 85 1 6 7 23 13 38 7 16 12 31 12 35 0 7 52 144 71 187 4 11 33 85 64 165 31 80 62 159 69 175 8 17 34 82 59 145 25 63 61 156 80 205 77 196 114 346 96 392 -22 59 -72 69 -119 23z"/><path d="M3985 3853 c-51 -12 -159 -166 -251 -355 -37 -77 -40 -83 -74 -163 -35 -84 -37 -89 -58 -135 -18 -41 -31 -84 -31 -103 0 -4 -7 -20 -15 -35 -25 -49 -134 -395 -141 -447 -2 -16 -4 -30 -5 -30 -3 0 -30 -118 -32 -135 0 -8 -4 -17 -7 -20 -3 -3 -18 -23 -32 -45 -82 -126 -313 -345 -363 -345 -18 0 -28 43 -22 90 5 41 58 201 110 338 20 52 36 100 36 107 0 23 -30 45 -60 45 -23 0 -35 -9 -55 -37 -14 -21 -25 -42 -25 -48 0 -6 -9 -28 -21 -49 -11 -21 -39 -93 -61 -160 -51 -150 -57 -247 -20 -308 27 -43 56 -63 97 -66 35 -3 95 16 95 29 0 5 6 9 13 9 25 0 198 193 232 259 9 19 26 43 36 54 10 12 19 24 19 29 0 4 4 8 9 8 10 0 20 -69 10 -75 -6 -4 7 -95 19 -125 3 -8 6 -17 6 -20 4 -23 54 -84 78 -96 85 -44 186 -4 288 112 30 35 60 63 67 64 7 0 24 -16 38 -34 15 -19 46 -44 69 -55 86 -42 178 -19 311 78 72 52 144 118 180 166 30 39 50 46 40 14 -20 -63 28 -159 89 -175 64 -16 172 80 263 234 33 55 53 76 53 54 0 -4 -13 -46 -29 -92 -16 -47 -32 -103 -36 -125 -7 -43 -37 -87 -126 -189 -30 -34 -80 -103 -163 -223 -16 -21 -37 -26 -166 -38 -113 -10 -157 -17 -224 -36 -38 -10 -72 -16 -76 -14 -19 12 -359 -72 -402 -99 -28 -17 -21 -25 15 -16 229 59 455 100 632 115 33 2 83 7 111 11 33 4 54 2 58 -5 4 -6 -7 -42 -24 -80 -16 -38 -30 -74 -30 -80 0 -6 -4 -11 -8 -11 -8 0 -39 -97 -48 -148 -3 -15 -8 -40 -13 -57 -12 -45 -7 -194 8 -247 16 -58 61 -108 97 -108 54 0 115 73 159 190 10 25 23 59 30 75 14 33 43 120 50 151 12 51 101 353 105 357 3 3 43 8 90 12 47 3 99 8 115 10 59 8 183 17 405 29 58 4 132 9 165 11 33 3 103 8 155 10 52 3 120 7 150 10 30 2 107 7 170 10 63 4 142 8 175 11 87 7 179 13 270 18 175 9 201 12 223 26 12 8 22 17 22 20 0 3 -64 4 -142 2 -106 -2 -149 -7 -166 -18 -18 -12 -26 -13 -38 -3 -11 9 -14 8 -14 -6 0 -9 -6 -15 -12 -12 -7 2 -12 9 -11 14 1 5 -17 9 -40 7 -23 -1 -112 -5 -197 -8 -86 -4 -165 -8 -176 -10 -18 -4 -109 -9 -343 -22 -51 -2 -98 -7 -103 -10 -5 -3 -64 -7 -131 -9 -67 -2 -149 -6 -182 -9 -33 -4 -89 -8 -125 -11 -106 -6 -204 -16 -219 -21 -24 -8 -40 14 -30 44 14 43 61 216 63 232 8 57 45 119 88 147 24 15 54 39 68 52 22 22 18 21 -35 -8 -33 -19 -63 -39 -67 -45 -12 -18 -9 9 8 77 9 34 19 69 22 77 3 8 6 20 7 25 2 6 18 48 36 95 18 47 34 87 34 90 1 3 15 33 33 67 38 74 33 107 -18 118 -40 9 -73 -19 -106 -90 -35 -76 -86 -165 -145 -252 -54 -81 -180 -213 -204 -213 -21 0 -27 46 -14 113 6 34 13 69 16 77 3 8 7 20 9 25 1 6 13 42 27 80 40 113 41 122 13 150 -52 52 -75 30 -122 -116 -33 -102 -46 -130 -83 -171 -107 -119 -302 -249 -398 -264 -46 -7 -71 3 -88 36 -24 46 -19 68 18 83 78 33 170 111 231 194 75 104 104 188 80 235 -26 50 -112 65 -171 28 -108 -65 -273 -298 -273 -384 0 -14 -5 -28 -10 -31 -6 -3 -7 -17 -4 -31 5 -21 -6 -36 -75 -102 -88 -85 -172 -135 -205 -122 -11 4 -30 19 -41 34 -17 24 -20 42 -20 134 0 184 22 265 105 391 33 51 60 96 60 101 0 6 4 10 9 10 5 0 13 10 17 23 4 12 10 24 13 27 41 31 265 467 334 650 69 185 94 336 60 377 -19 23 -55 34 -88 26z m56 -87 c14 -30 -22 -213 -58 -294 -14 -31 -25 -67 -25 -79 0 -13 -4 -23 -9 -23 -5 0 -9 -6 -9 -12 0 -7 -14 -40 -30 -72 -17 -32 -30 -62 -30 -67 0 -4 -13 -31 -30 -59 -16 -28 -30 -57 -30 -65 0 -8 -6 -18 -13 -22 -13 -9 -42 -63 -39 -75 1 -5 -2 -8 -8 -8 -5 0 -10 -5 -10 -11 0 -6 -13 -29 -29 -52 -15 -23 -32 -53 -36 -67 -4 -13 -13 -29 -19 -36 -22 -24 -46 -54 -46 -60 0 -2 -5 -10 -11 -17 -5 -7 -20 -28 -32 -47 -17 -28 -22 -31 -25 -17 -2 10 0 26 4 35 4 9 8 22 10 29 8 38 90 292 119 368 19 50 35 94 35 99 0 4 6 22 14 39 8 18 33 79 57 137 90 217 196 400 231 400 5 0 13 -11 19 -24z m169 -1085 c0 -28 -39 -115 -56 -124 -8 -4 -14 -13 -14 -20 0 -15 -151 -157 -167 -157 -7 0 -13 3 -13 8 0 16 78 156 116 208 63 85 134 130 134 85z m536 -659 c-14 -42 -28 -94 -32 -114 -8 -46 -19 -56 -69 -60 -25 -2 -39 -8 -37 -15 3 -17 -13 -16 -27 1 -10 12 -10 20 0 38 8 13 13 26 14 29 0 3 38 57 85 120 94 127 107 127 66 1z m-62 -220 c3 -5 -2 -28 -11 -53 -8 -24 -19 -59 -24 -76 -5 -18 -14 -50 -19 -70 -6 -21 -12 -42 -13 -48 -8 -27 -29 -92 -37 -110 -5 -11 -20 -51 -34 -90 -49 -141 -91 -216 -116 -212 -8 1 -19 18 -24 37 -5 19 -13 37 -17 40 -10 7 8 179 26 252 22 85 61 191 97 260 29 55 32 57 82 66 69 13 84 13 90 4z"/><path d="M6192 3149 c-38 -22 -51 -73 -30 -116 19 -39 43 -40 82 -1 54 54 68 81 53 101 -21 30 -71 38 -105 16z"/><path d="M3140 2937 c-37 -17 -60 -47 -60 -77 0 -30 34 -80 54 -80 7 0 32 19 55 41 36 36 42 47 39 78 -2 20 -8 36 -15 36 -6 0 -15 3 -19 8 -10 9 -24 8 -54 -6z"/></g><g transform="translate(0.000000,548.000000) scale(0.100000,-0.100000)" fill="#131313" stroke="none"><path d="M2595 4129 c-157 -19 -407 -87 -530 -143 -16 -8 -57 -26 -90 -41 -96 -42 -276 -135 -322 -166 -23 -16 -44 -29 -48 -29 -4 0 -50 -29 -103 -64 -234 -156 -413 -293 -550 -421 -385 -360 -606 -656 -712 -955 -18 -50 -24 -87 -24 -160 -1 -92 0 -98 34 -155 84 -140 217 -197 420 -177 57 5 76 11 78 23 2 14 -13 17 -110 21 -136 7 -187 26 -258 97 -76 76 -93 186 -49 327 116 375 573 882 1134 1258 115 77 110 74 240 147 154 87 343 179 367 179 8 0 22 6 33 13 11 7 38 18 60 25 22 8 49 17 60 22 34 16 286 78 362 89 217 33 440 -17 523 -117 96 -117 100 -225 14 -444 -116 -297 -423 -667 -779 -939 -62 -47 -251 -174 -295 -197 -84 -46 -219 -112 -227 -112 -5 0 -27 -8 -49 -18 -45 -22 -133 -47 -139 -40 -4 4 40 126 102 278 32 81 98 248 124 315 11 28 40 97 66 155 25 58 49 114 54 125 4 11 21 49 37 85 16 36 33 76 37 90 4 14 24 57 45 95 42 80 52 151 25 179 -19 18 -48 21 -76 6 -18 -10 -107 -176 -134 -250 -7 -19 -31 -73 -53 -120 -42 -89 -122 -275 -122 -284 0 -3 -14 -36 -31 -73 -17 -38 -40 -90 -50 -118 -11 -27 -36 -88 -56 -135 -19 -47 -39 -94 -43 -105 -4 -11 -15 -36 -23 -55 -9 -19 -25 -56 -36 -82 l-20 -46 -83 3 c-94 4 -137 -9 -163 -49 -36 -54 7 -104 111 -127 30 -7 54 -17 54 -23 0 -7 -16 -49 -35 -94 -83 -197 -179 -520 -192 -647 -7 -70 15 -121 63 -141 32 -14 38 -14 61 1 14 9 39 47 56 83 16 37 45 90 63 118 36 54 46 94 27 101 -7 3 -23 -7 -37 -22 -37 -40 -37 -12 -1 95 18 52 46 138 63 190 38 117 100 282 110 292 18 17 300 -62 442 -124 82 -36 104 -46 190 -78 47 -18 99 -38 115 -45 28 -11 159 -56 265 -90 25 -8 63 -17 85 -20 22 -4 49 -9 60 -12 11 -3 17 -2 13 2 -6 6 -35 15 -103 30 -11 3 -31 9 -45 14 -14 5 -47 15 -75 22 -27 7 -90 28 -140 47 -120 45 -313 121 -350 137 -182 78 -419 147 -457 132 -22 -8 -94 -198 -198 -525 -29 -90 -50 -165 -48 -168 3 -2 25 21 49 51 49 61 85 77 50 23 -11 -18 -45 -79 -76 -135 -32 -58 -64 -105 -75 -108 -26 -8 -77 20 -86 47 -4 13 -7 45 -6 71 2 84 77 366 132 495 6 12 14 32 19 45 4 12 25 64 45 115 20 51 36 99 36 105 0 8 -30 20 -71 30 -78 18 -109 38 -109 71 0 55 69 89 160 79 98 -12 89 -17 134 87 23 52 47 105 54 117 7 12 11 26 11 30 -2 9 11 43 45 118 13 28 33 77 46 110 12 33 33 83 45 110 40 87 53 119 61 145 4 14 22 59 41 100 20 41 50 107 67 145 18 39 43 97 56 130 26 65 78 153 104 174 13 11 20 11 42 -4 23 -15 26 -21 20 -57 -4 -22 -22 -69 -40 -106 -18 -37 -50 -107 -71 -157 -20 -49 -51 -119 -67 -155 -17 -36 -39 -87 -49 -115 -11 -27 -26 -63 -34 -80 -26 -57 -113 -270 -119 -295 -4 -14 -13 -38 -21 -55 -7 -16 -20 -46 -28 -65 -21 -48 -77 -219 -77 -232 0 -27 158 17 288 81 34 17 65 31 68 31 3 0 26 14 51 30 24 17 46 30 49 30 10 0 256 169 325 222 9 7 37 31 61 53 25 22 62 53 81 68 61 48 172 162 286 293 67 77 197 267 244 357 97 185 136 329 119 440 -29 185 -188 286 -452 288 -160 2 -340 -36 -585 -121 -111 -39 -124 -45 -310 -138 -149 -74 -391 -214 -410 -237 -6 -7 -35 -28 -65 -47 -61 -40 -233 -172 -316 -245 -84 -73 -333 -322 -384 -383 -75 -90 -150 -190 -150 -199 0 -4 -9 -16 -20 -26 -28 -25 -131 -214 -170 -311 -24 -60 -33 -100 -37 -166 -3 -48 -2 -95 2 -105 5 -10 9 -20 10 -23 14 -57 95 -133 174 -166 61 -24 87 -29 186 -35 35 -2 32 -3 -20 -9 -57 -7 -146 3 -190 19 -105 41 -148 76 -191 154 -36 66 -45 184 -21 268 31 105 125 289 217 424 59 87 244 308 316 379 182 178 289 272 409 361 40 30 79 60 86 68 8 8 32 26 54 41 22 14 69 47 105 72 137 95 199 133 305 188 22 12 42 24 45 27 7 9 233 117 285 136 22 8 49 19 60 23 90 36 189 70 225 75 14 2 54 11 90 20 169 42 398 47 505 11 156 -53 238 -118 294 -235 30 -64 36 -88 39 -163 5 -98 -3 -141 -54 -277 -34 -91 -131 -273 -164 -309 -10 -10 -22 -27 -28 -39 -6 -11 -27 -40 -47 -64 -232 -283 -486 -509 -792 -704 -104 -66 -308 -166 -368 -181 -17 -4 -34 -10 -40 -14 -5 -4 -25 -11 -42 -15 -40 -8 -42 -21 -5 -29 54 -13 167 -47 182 -55 9 -5 31 -12 50 -16 19 -4 53 -16 75 -25 22 -10 78 -33 125 -50 47 -18 99 -38 115 -45 68 -29 82 -35 125 -49 25 -8 59 -20 75 -26 61 -25 71 -29 115 -40 288 -75 352 -85 525 -84 144 1 181 9 278 60 48 26 29 8 -42 -40 -82 -55 -123 -71 -222 -85 -109 -16 -262 -10 -364 15 -15 4 -17 3 -5 -4 22 -14 133 -31 225 -36 93 -4 223 20 305 56 59 26 150 102 138 114 -4 4 -34 -5 -67 -20 -79 -35 -146 -47 -271 -46 -175 2 -204 7 -490 84 -81 22 -107 31 -189 65 -41 17 -80 31 -87 31 -7 0 -25 6 -41 14 -43 22 -92 42 -158 65 -33 11 -89 32 -125 46 -36 15 -109 39 -162 54 l-98 26 33 14 c249 101 380 173 592 322 213 149 487 412 637 611 120 159 219 345 258 483 70 248 -13 463 -219 569 -93 48 -303 74 -456 55z"/><path d="M5745 3962 c-29 -6 -52 -29 -86 -89 -34 -59 -31 -83 7 -58 20 13 24 13 24 1 0 -15 -72 -215 -117 -326 -14 -36 -39 -99 -54 -140 -15 -41 -55 -147 -90 -235 -147 -379 -243 -663 -263 -774 -11 -64 5 -24 35 85 16 60 38 134 49 164 26 75 79 222 87 240 3 8 7 17 7 20 1 3 11 30 23 60 11 30 40 105 63 165 48 128 50 132 129 335 71 183 151 405 151 420 0 9 -15 14 -34 11 -5 -1 -6 5 -2 14 3 9 6 21 6 26 0 19 61 69 83 69 29 -1 54 -20 66 -53 18 -46 -19 -196 -96 -392 -19 -49 -55 -142 -80 -205 -25 -63 -51 -128 -59 -145 -7 -16 -38 -95 -69 -175 -31 -80 -60 -154 -64 -165 -19 -43 -71 -180 -71 -187 0 -4 -5 -19 -12 -35 -6 -15 -12 -32 -13 -38 -2 -5 -14 -44 -28 -85 -24 -74 -50 -178 -63 -253 -7 -42 7 -67 38 -67 23 0 152 59 156 71 2 5 8 9 12 9 5 0 52 25 105 55 52 30 99 55 104 55 5 0 11 4 13 8 2 5 43 30 92 56 134 71 158 93 180 168 26 86 72 195 102 241 26 40 55 47 87 23 25 -19 21 -49 -17 -151 -97 -259 -115 -374 -55 -367 48 5 172 106 277 225 34 38 82 125 82 147 0 7 6 24 14 38 7 15 29 58 47 96 37 77 54 92 90 83 46 -12 51 -38 23 -114 -103 -276 -133 -387 -110 -410 26 -27 159 93 246 223 28 41 76 127 107 190 59 122 84 149 127 138 47 -12 48 -31 5 -155 -23 -63 -43 -123 -46 -134 -35 -139 -24 -210 37 -235 30 -13 34 -13 280 -11 107 1 218 -3 245 -9 28 -5 64 -12 80 -14 17 -2 37 -6 45 -8 8 -3 33 -11 55 -18 87 -28 133 -77 116 -123 -20 -51 -89 -93 -246 -149 -68 -24 -73 -27 -35 -22 59 8 162 49 226 90 57 36 79 76 69 122 -8 36 -25 53 -91 86 -69 34 -306 66 -459 60 -230 -8 -250 -7 -283 10 -23 12 -33 25 -38 53 -11 57 12 173 56 290 22 59 40 115 40 125 0 49 -88 78 -126 41 -9 -9 -41 -67 -70 -129 -55 -118 -122 -222 -183 -289 -56 -61 -132 -125 -142 -120 -19 12 12 132 81 317 28 72 50 139 50 148 0 26 -23 49 -58 59 -29 9 -36 7 -61 -17 -15 -15 -37 -49 -48 -77 -72 -173 -87 -206 -99 -216 -8 -6 -14 -17 -14 -23 0 -15 -173 -184 -229 -224 -25 -18 -54 -32 -64 -32 -18 0 -19 5 -13 63 3 34 31 134 61 223 69 200 70 221 12 243 -52 20 -69 2 -125 -123 -29 -64 -58 -138 -64 -164 -7 -26 -16 -53 -21 -59 -9 -13 -139 -94 -192 -121 -16 -8 -56 -31 -89 -50 -165 -99 -335 -184 -352 -178 -43 16 25 267 184 681 89 232 104 269 133 333 16 35 29 67 29 71 0 5 14 41 31 82 37 87 112 289 140 373 28 87 36 189 16 219 -18 27 -61 45 -92 39z"/><path d="M3942 3841 c-163 -119 -413 -709 -582 -1378 -6 -23 -25 -59 -43 -81 -17 -22 -48 -59 -67 -83 -82 -102 -245 -249 -276 -249 -4 0 -4 30 -1 68 5 66 25 131 105 346 45 121 44 145 -11 167 -24 10 -34 10 -56 -2 -27 -15 -64 -73 -80 -124 -5 -16 -23 -62 -39 -101 -37 -87 -72 -224 -72 -279 0 -142 103 -223 216 -169 41 20 158 127 197 180 16 22 48 66 72 99 25 33 45 66 45 74 0 20 -32 -15 -55 -60 -34 -66 -207 -259 -232 -259 -7 0 -13 -4 -13 -9 0 -13 -60 -32 -95 -29 -41 3 -70 23 -97 66 -37 61 -31 158 20 308 22 67 50 139 61 160 12 21 21 43 21 49 0 6 11 27 25 48 20 28 32 37 55 37 30 0 60 -22 60 -45 0 -7 -16 -55 -36 -107 -52 -137 -105 -297 -110 -338 -6 -47 4 -90 22 -90 50 0 281 219 363 345 14 22 29 42 32 45 3 3 7 12 7 20 2 17 29 135 32 135 1 0 3 14 5 30 7 52 116 398 141 447 8 15 14 29 13 30 -2 8 16 68 33 108 21 46 23 51 58 135 34 80 37 86 74 163 61 127 136 248 185 302 43 47 53 53 90 54 64 1 84 -29 77 -114 -10 -136 -63 -290 -193 -560 -73 -150 -193 -364 -214 -380 -3 -3 -9 -15 -13 -27 -4 -13 -12 -23 -17 -23 -5 0 -9 -4 -9 -10 0 -5 -27 -50 -60 -101 -83 -126 -105 -207 -105 -391 0 -92 3 -110 20 -134 11 -15 30 -30 41 -34 33 -13 117 37 205 122 69 66 80 81 75 102 -3 14 -2 28 4 31 5 3 10 17 10 31 0 86 165 319 273 384 59 37 145 22 171 -28 24 -47 -5 -131 -80 -235 -61 -83 -153 -161 -231 -194 -37 -15 -42 -37 -18 -83 17 -33 42 -43 88 -36 96 15 291 145 398 264 37 41 50 69 83 171 47 146 70 168 122 116 28 -28 27 -37 -13 -150 -14 -38 -26 -74 -27 -80 -2 -5 -6 -17 -9 -25 -3 -8 -10 -43 -16 -77 -13 -67 -7 -113 14 -113 24 0 150 132 204 213 59 87 110 176 145 252 33 71 66 99 106 90 51 -11 56 -44 18 -118 -18 -34 -32 -64 -33 -67 0 -3 -16 -43 -34 -90 -18 -47 -34 -89 -36 -95 -1 -5 -4 -17 -7 -25 -11 -29 -38 -140 -38 -152 0 -9 3 -9 8 -2 8 12 76 54 87 54 4 0 5 -7 1 -15 -4 -10 5 -8 29 8 19 12 35 26 35 30 0 22 -34 14 -85 -19 -47 -29 -57 -33 -53 -18 42 146 67 217 109 314 66 150 67 153 36 184 -53 53 -110 22 -160 -83 -17 -36 -43 -85 -59 -108 -15 -23 -28 -44 -28 -47 0 -2 -24 -40 -54 -83 -57 -82 -167 -203 -184 -203 -27 0 -14 86 38 245 45 141 47 159 16 189 -24 25 -60 33 -82 18 -18 -12 -40 -62 -70 -162 -28 -93 -30 -97 -107 -173 -136 -134 -327 -242 -399 -224 -28 8 -49 38 -41 63 3 11 30 32 61 47 71 34 174 133 230 219 54 83 75 172 49 212 -66 99 -212 55 -335 -101 -72 -91 -152 -265 -152 -329 0 -31 -123 -150 -192 -186 -96 -49 -124 -5 -114 177 8 144 28 235 64 288 230 335 406 670 499 947 37 110 45 150 47 213 1 76 0 80 -29 103 -41 32 -83 31 -133 -5z m1093 -1491 c-3 -5 -12 -10 -18 -10 -7 0 -6 4 3 10 19 12 23 12 15 0z"/><path d="M3988 3763 c-46 -51 -127 -204 -197 -373 -24 -58 -49 -119 -57 -137 -8 -17 -14 -35 -14 -39 0 -5 -16 -49 -35 -99 -29 -76 -111 -330 -119 -368 -2 -7 -6 -20 -10 -29 -4 -9 -6 -25 -4 -35 3 -14 9 -11 26 17 23 37 28 55 13 45 -18 -11 76 291 140 452 17 43 37 96 44 118 7 22 31 79 54 127 22 48 41 89 41 91 0 2 23 46 51 98 49 91 84 139 101 139 33 0 -24 -242 -95 -400 -92 -208 -169 -355 -273 -521 -56 -90 -60 -99 -44 -99 6 0 10 4 10 10 0 9 19 35 46 64 6 7 15 23 19 36 4 14 21 44 36 67 16 23 29 46 29 52 0 6 5 11 10 11 6 0 9 3 8 8 -3 12 26 66 39 75 7 4 13 14 13 22 0 8 14 37 30 65 17 28 30 55 30 59 0 5 13 35 30 67 16 32 30 65 30 72 0 6 4 12 9 12 5 0 9 10 9 23 0 12 11 48 25 79 36 81 72 264 58 294 -14 31 -22 30 -53 -3z"/><path d="M6185 3162 c-41 -26 -59 -62 -51 -106 7 -36 37 -66 67 -66 32 0 119 96 119 132 0 21 -55 58 -85 58 -11 0 -33 -8 -50 -18z m112 -29 c15 -20 1 -47 -53 -101 -39 -39 -63 -38 -82 1 -33 69 23 146 92 126 17 -5 37 -17 43 -26z"/><path d="M3125 2948 c-47 -27 -72 -81 -53 -118 15 -31 48 -59 68 -60 9 0 37 22 63 48 55 55 63 99 25 126 -26 19 -75 20 -103 4z m69 -5 c4 -5 13 -8 19 -8 7 0 13 -16 15 -36 3 -31 -3 -42 -39 -78 -23 -22 -48 -41 -55 -41 -20 0 -54 50 -54 80 0 30 23 60 60 77 30 14 44 15 54 6z"/><path d="M4150 2675 c-43 -32 -106 -117 -153 -207 -41 -80 -43 -88 -24 -88 16 0 167 142 167 157 0 7 6 16 14 20 17 9 56 96 56 124 0 26 -19 24 -60 -6z m50 -6 c0 -36 -98 -167 -172 -230 l-48 -40 30 63 c34 72 103 171 138 199 27 21 52 25 52 8z"/><path d="M6770 2513 c-48 -73 -157 -189 -198 -210 -13 -7 -39 -12 -56 -11 -76 4 -113 70 -104 182 3 36 3 66 -1 66 -3 0 -21 -23 -39 -50 -17 -28 -37 -50 -42 -50 -6 0 -10 -7 -10 -14 0 -19 -145 -162 -184 -181 -41 -21 -78 -19 -117 8 -44 29 -69 80 -69 140 0 26 -3 47 -8 47 -4 0 -21 -12 -38 -27 -96 -89 -175 -149 -276 -214 -27 -17 -48 -35 -48 -40 0 -5 -6 -9 -14 -9 -7 0 -19 -7 -26 -15 -6 -8 -54 -35 -105 -61 -81 -40 -100 -46 -138 -42 -92 11 -138 78 -139 202 -1 70 -1 70 -10 27 -19 -89 11 -171 81 -218 49 -33 110 -31 190 8 101 47 327 205 466 323 32 28 56 46 52 40 -4 -7 -2 -37 4 -67 19 -94 84 -140 174 -123 49 9 142 90 212 183 l58 77 6 -54 c7 -67 23 -101 58 -128 39 -29 84 -36 118 -18 50 26 143 117 194 189 40 57 49 66 49 45 0 -44 31 -116 65 -151 55 -57 115 -71 254 -61 64 5 190 9 281 9 183 0 260 -13 307 -51 l28 -24 -25 -21 c-44 -37 -143 -82 -225 -100 -177 -41 -336 -69 -455 -79 -69 -6 -136 -13 -150 -15 -14 -3 -61 -7 -105 -10 -44 -3 -100 -7 -125 -10 -44 -5 -270 -20 -455 -30 -49 -3 -117 -7 -150 -10 -33 -3 -121 -7 -195 -10 -251 -10 -365 -16 -390 -20 -14 -2 -61 -7 -105 -9 -44 -3 -116 -8 -160 -11 -75 -5 -184 -15 -334 -31 -59 -7 -63 -6 -58 12 3 10 14 51 26 89 11 39 30 108 42 155 20 75 27 90 68 129 47 44 41 46 -15 5 -17 -12 -36 -35 -42 -51 -5 -15 -14 -37 -18 -48 -4 -11 -8 -27 -10 -35 -2 -16 -49 -189 -63 -232 -10 -30 6 -52 30 -44 15 5 113 15 219 21 36 3 92 7 125 11 33 3 115 7 182 9 67 2 126 6 131 9 5 3 52 8 103 10 234 13 325 18 343 22 11 2 90 6 176 10 85 3 174 7 197 8 23 2 41 -2 40 -7 -1 -5 4 -12 11 -14 6 -3 12 3 12 12 0 14 3 15 14 6 12 -10 20 -9 38 3 17 11 60 16 166 18 78 2 142 1 142 -2 0 -3 -10 -12 -22 -20 -22 -14 -48 -17 -223 -26 -91 -5 -183 -11 -270 -18 -33 -3 -112 -7 -175 -11 -63 -3 -140 -8 -170 -10 -30 -3 -98 -7 -150 -10 -52 -2 -122 -7 -155 -10 -33 -2 -107 -7 -165 -11 -222 -12 -346 -21 -405 -29 -16 -2 -68 -7 -115 -10 -47 -4 -87 -9 -90 -12 -4 -4 -93 -306 -105 -357 -7 -31 -36 -118 -50 -151 -7 -16 -20 -50 -30 -75 -44 -117 -105 -190 -159 -190 -36 0 -81 50 -97 108 -15 53 -20 202 -8 247 5 17 10 42 13 57 9 51 40 148 48 148 4 0 8 5 8 11 0 6 14 42 30 80 17 38 28 74 24 80 -4 7 -25 9 -58 5 -28 -4 -78 -9 -111 -11 -177 -15 -403 -56 -632 -115 -36 -9 -43 -1 -15 16 43 27 383 111 402 99 4 -2 38 4 76 14 67 19 111 26 224 36 129 12 150 17 166 38 83 120 133 189 163 223 89 102 119 146 126 189 4 22 20 78 36 125 16 46 29 88 29 92 0 22 -20 1 -53 -54 -91 -154 -199 -250 -263 -234 -61 16 -109 112 -89 175 10 32 -10 25 -40 -14 -36 -48 -108 -114 -180 -166 -133 -97 -225 -120 -311 -78 -23 11 -54 36 -69 55 -14 18 -31 34 -38 34 -7 -1 -37 -29 -67 -64 -78 -89 -141 -127 -211 -128 -60 0 -101 22 -130 69 -13 21 -24 40 -25 43 0 3 -3 12 -6 20 -12 30 -25 121 -19 125 10 5 1 75 -9 75 -11 0 -4 -148 10 -200 8 -28 28 -61 59 -93 44 -46 52 -50 103 -55 40 -3 64 1 89 13 56 29 121 83 165 135 l42 49 37 -41 c119 -128 288 -82 518 141 63 62 67 64 67 38 0 -78 62 -147 131 -147 56 0 181 115 229 211 27 52 32 49 14 -8 -8 -27 -21 -70 -28 -98 -17 -68 -26 -84 -106 -172 -38 -43 -98 -119 -132 -169 -56 -82 -67 -93 -98 -98 -19 -3 -120 -17 -225 -32 -382 -54 -651 -126 -672 -180 -10 -25 5 -28 64 -11 79 23 249 64 298 71 296 47 347 54 420 61 33 4 73 9 90 12 24 5 28 3 19 -8 -21 -26 -101 -244 -119 -324 -26 -111 -23 -248 5 -314 26 -60 47 -80 94 -91 103 -23 178 115 307 565 11 39 27 91 35 117 8 26 14 56 14 67 0 13 7 22 18 23 9 0 28 2 42 3 14 1 81 7 150 13 69 6 195 16 280 22 85 6 173 13 195 15 22 2 90 6 150 10 61 3 128 8 150 10 22 3 135 9 250 15 209 10 332 17 433 25 30 3 142 12 250 20 109 8 242 21 297 30 55 8 118 15 140 15 45 1 324 55 334 66 3 3 -14 3 -39 -1 -25 -5 -54 -9 -65 -11 -11 -1 -74 -12 -140 -23 -192 -32 -583 -74 -512 -54 9 2 17 8 17 13 0 17 26 21 275 46 59 5 234 33 280 44 22 6 58 12 81 14 107 11 318 91 358 135 29 32 14 66 -36 85 -106 39 -345 52 -493 26 -27 -5 -91 -8 -141 -7 -82 2 -95 5 -139 32 -67 42 -97 104 -97 198 0 20 -3 37 -7 37 -4 0 -27 -30 -51 -67z"/><path d="M1380 2139 c0 -4 12 -10 28 -12 25 -4 25 -4 -5 -6 -18 0 -33 4 -33 9 0 6 -10 10 -22 10 -42 0 6 -32 57 -38 42 -4 47 -3 43 14 -3 18 -68 40 -68 23z"/><path d="M4680 2021 c-47 -63 -85 -117 -85 -120 -1 -3 -6 -16 -14 -29 -10 -18 -10 -26 0 -38 14 -17 30 -18 27 -1 -2 7 12 13 37 15 50 4 61 14 69 60 4 20 18 72 32 114 41 126 28 126 -66 -1z m51 -2 c-10 -35 -23 -83 -30 -105 -10 -38 -14 -42 -52 -48 -23 -4 -44 -5 -46 -2 -7 6 31 69 72 121 17 22 40 54 50 72 11 18 20 31 22 29 2 -2 -5 -32 -16 -67z"/><path d="M4594 1798 c-50 -9 -53 -11 -82 -66 -36 -69 -75 -175 -97 -260 -18 -73 -36 -245 -26 -252 4 -3 12 -21 17 -40 23 -82 70 -23 140 175 14 39 29 79 34 90 8 18 29 83 37 110 1 6 7 27 13 48 5 20 14 52 19 70 5 17 16 52 24 76 23 65 20 67 -79 49z m67 -44 c-5 -16 -31 -96 -56 -179 -72 -232 -143 -404 -171 -413 -20 -5 -37 92 -29 165 10 99 60 267 106 364 l42 86 51 9 c28 5 54 7 59 4 4 -4 3 -19 -2 -36z"/></g><g transform="translate(0.000000,548.000000) scale(0.100000,-0.100000)" fill="#191919" stroke="none"><path d="M2648 4133 c7 -3 16 -2 19 1 4 3 -2 6 -13 5 -11 0 -14 -3 -6 -6z"/><path d="M2808 4133 c7 -3 16 -2 19 1 4 3 -2 6 -13 5 -11 0 -14 -3 -6 -6z"/><path d="M5630 3798 c0 -11 12 -10 30 2 12 7 10 9 -8 7 -12 0 -22 -5 -22 -9z"/><path d="M3181 3694 c0 -11 3 -14 6 -6 3 7 2 16 -1 19 -3 4 -6 -2 -5 -13z"/><path d="M1299 3553 c-13 -16 -12 -17 4 -4 9 7 17 15 17 17 0 8 -8 3 -21 -13z"/><path d="M2139 3432 c5 -34 6 -35 9 -8 2 16 0 32 -5 37 -5 5 -7 -7 -4 -29z"/><path d="M904 3228 l-19 -23 23 19 c21 18 27 26 19 26 -2 0 -12 -10 -23 -22z"/><path d="M3936 3233 c-6 -14 -5 -15 5 -6 7 7 10 15 7 18 -3 3 -9 -2 -12 -12z"/><path d="M859 3183 c-13 -16 -12 -17 4 -4 9 7 17 15 17 17 0 8 -8 3 -21 -13z"/><path d="M740 3065 c-24 -25 -42 -45 -39 -45 3 0 25 20 49 45 24 25 42 45 39 45 -3 0 -25 -20 -49 -45z"/><path d="M789 2983 l-24 -28 28 24 c25 23 32 31 24 31 -2 0 -14 -12 -28 -27z"/><path d="M2939 2933 c-13 -16 -12 -17 4 -4 16 13 21 21 13 21 -2 0 -10 -8 -17 -17z"/><path d="M709 2893 c-13 -16 -12 -17 4 -4 9 7 17 15 17 17 0 8 -8 3 -21 -13z"/><path d="M2874 2858 l-29 -33 33 29 c30 28 37 36 29 36 -2 0 -16 -15 -33 -32z"/><path d="M604 2768 l-19 -23 23 19 c21 18 27 26 19 26 -2 0 -12 -10 -23 -22z"/><path d="M4291 2644 c0 -11 3 -14 6 -6 3 7 2 16 -1 19 -3 4 -6 -2 -5 -13z"/><path d="M6334 2538 l-19 -23 23 19 c12 11 22 21 22 23 0 8 -8 2 -26 -19z"/><path d="M6951 2484 c0 -11 3 -14 6 -6 3 7 2 16 -1 19 -3 4 -6 -2 -5 -13z"/><path d="M6214 2418 l-19 -23 23 19 c21 18 27 26 19 26 -2 0 -12 -10 -23 -22z"/><path d="M6334 2418 l-19 -23 23 19 c12 11 22 21 22 23 0 8 -8 2 -26 -19z"/><path d="M1556 2403 c-6 -14 -5 -15 5 -6 7 7 10 15 7 18 -3 3 -9 -2 -12 -12z"/><path d="M7568 2393 c7 -3 16 -2 19 1 4 3 -2 6 -13 5 -11 0 -14 -3 -6 -6z"/><path d="M7258 2313 c7 -3 16 -2 19 1 4 3 -2 6 -13 5 -11 0 -14 -3 -6 -6z"/><path d="M7318 2313 c7 -3 16 -2 19 1 4 3 -2 6 -13 5 -11 0 -14 -3 -6 -6z"/><path d="M4359 2263 c-13 -16 -12 -17 4 -4 9 7 17 15 17 17 0 8 -8 3 -21 -13z"/><path d="M4929 2253 c-13 -16 -12 -17 4 -4 9 7 17 15 17 17 0 8 -8 3 -21 -13z"/><path d="M3749 2233 c-13 -16 -12 -17 4 -4 16 13 21 21 13 21 -2 0 -10 -8 -17 -17z"/><path d="M311 2214 c0 -11 3 -14 6 -6 3 7 2 16 -1 19 -3 4 -6 -2 -5 -13z"/><path d="M1438 2213 c7 -3 16 -2 19 1 4 3 -2 6 -13 5 -11 0 -14 -3 -6 -6z"/><path d="M1370 2129 c0 -5 9 -9 20 -9 11 0 20 2 20 4 0 2 -9 6 -20 9 -11 3 -20 1 -20 -4z"/><path d="M4018 2073 c6 -2 18 -2 25 0 6 3 1 5 -13 5 -14 0 -19 -2 -12 -5z"/><path d="M7488 2043 c7 -3 16 -2 19 1 4 3 -2 6 -13 5 -11 0 -14 -3 -6 -6z"/><path d="M7408 2023 c7 -3 16 -2 19 1 4 3 -2 6 -13 5 -11 0 -14 -3 -6 -6z"/><path d="M6788 2013 c7 -3 16 -2 19 1 4 3 -2 6 -13 5 -11 0 -14 -3 -6 -6z"/><path d="M7368 2013 c7 -3 16 -2 19 1 4 3 -2 6 -13 5 -11 0 -14 -3 -6 -6z"/><path d="M7093 1973 c9 -2 23 -2 30 0 6 3 -1 5 -18 5 -16 0 -22 -2 -12 -5z"/><path d="M6018 1963 c6 -2 18 -2 25 0 6 3 1 5 -13 5 -14 0 -19 -2 -12 -5z"/><path d="M7008 1963 c7 -3 16 -2 19 1 4 3 -2 6 -13 5 -11 0 -14 -3 -6 -6z"/><path d="M5878 1953 c7 -3 16 -2 19 1 4 3 -2 6 -13 5 -11 0 -14 -3 -6 -6z"/><path d="M6948 1953 c6 -2 18 -2 25 0 6 3 1 5 -13 5 -14 0 -19 -2 -12 -5z"/><path d="M6878 1943 c7 -3 16 -2 19 1 4 3 -2 6 -13 5 -11 0 -14 -3 -6 -6z"/><path d="M2958 1933 c6 -2 18 -2 25 0 6 3 1 5 -13 5 -14 0 -19 -2 -12 -5z"/><path d="M6733 1933 c9 -2 25 -2 35 0 9 3 1 5 -18 5 -19 0 -27 -2 -17 -5z"/><path d="M6588 1923 c12 -2 30 -2 40 0 9 3 -1 5 -23 4 -22 0 -30 -2 -17 -4z"/><path d="M6148 1893 c6 -2 18 -2 25 0 6 3 1 5 -13 5 -14 0 -19 -2 -12 -5z"/><path d="M5918 1883 c7 -3 16 -2 19 1 4 3 -2 6 -13 5 -11 0 -14 -3 -6 -6z"/><path d="M518 1873 c6 -2 18 -2 25 0 6 3 1 5 -13 5 -14 0 -19 -2 -12 -5z"/><path d="M2318 1873 c7 -3 16 -2 19 1 4 3 -2 6 -13 5 -11 0 -14 -3 -6 -6z"/><path d="M578 1863 c7 -3 16 -2 19 1 4 3 -2 6 -13 5 -11 0 -14 -3 -6 -6z"/><path d="M4618 1863 c7 -3 16 -2 19 1 4 3 -2 6 -13 5 -11 0 -14 -3 -6 -6z"/><path d="M5638 1863 c12 -2 30 -2 40 0 9 3 -1 5 -23 4 -22 0 -30 -2 -17 -4z"/><path d="M5498 1853 c7 -3 16 -2 19 1 4 3 -2 6 -13 5 -11 0 -14 -3 -6 -6z"/><path d="M5368 1843 c12 -2 30 -2 40 0 9 3 -1 5 -23 4 -22 0 -30 -2 -17 -4z"/><path d="M5073 1823 c9 -2 25 -2 35 0 9 3 1 5 -18 5 -19 0 -27 -2 -17 -5z"/><path d="M638 1813 c6 -2 18 -2 25 0 6 3 1 5 -13 5 -14 0 -19 -2 -12 -5z"/><path d="M4838 1803 c7 -3 16 -2 19 1 4 3 -2 6 -13 5 -11 0 -14 -3 -6 -6z"/><path d="M4088 1793 c7 -3 16 -2 19 1 4 3 -2 6 -13 5 -11 0 -14 -3 -6 -6z"/><path d="M2568 1783 c7 -3 16 -2 19 1 4 3 -2 6 -13 5 -11 0 -14 -3 -6 -6z"/><path d="M4353 1753 c9 -2 23 -2 30 0 6 3 -1 5 -18 5 -16 0 -22 -2 -12 -5z"/><path d="M4258 1743 c7 -3 16 -2 19 1 4 3 -2 6 -13 5 -11 0 -14 -3 -6 -6z"/><path d="M4208 1733 c7 -3 16 -2 19 1 4 3 -2 6 -13 5 -11 0 -14 -3 -6 -6z"/><path d="M4118 1723 c7 -3 16 -2 19 1 4 3 -2 6 -13 5 -11 0 -14 -3 -6 -6z"/><path d="M3878 1683 c6 -2 18 -2 25 0 6 3 1 5 -13 5 -14 0 -19 -2 -12 -5z"/><path d="M3758 1653 c7 -3 16 -2 19 1 4 3 -2 6 -13 5 -11 0 -14 -3 -6 -6z"/><path d="M3553 1635 c-3 -9 -3 -18 -1 -21 3 -3 8 4 11 16 6 23 -1 27 -10 5z"/><path d="M4721 1534 c0 -11 3 -14 6 -6 3 7 2 16 -1 19 -3 4 -6 -2 -5 -13z"/><path d="M1395 1420 c-4 -6 -11 -8 -16 -5 -5 3 -6 -1 -3 -9 8 -21 11 -20 24 4 11 20 6 29 -5 10z"/><path d="M4402 1250 c0 -14 2 -19 5 -12 2 6 2 18 0 25 -3 6 -5 1 -5 -13z"/><path d="M4519 1053 c-13 -16 -12 -17 4 -4 9 7 17 15 17 17 0 8 -8 3 -21 -13z"/></g></svg>